# xmcd CD database file
#
# Track frame offsets:
#	150
#	22890
#	41225
#
# Disc length: 823 seconds
#
# Revision: 0
# Processed by: cddbd v1.5PL3 Copyright (c) Steve Scherf et al.
# Submitted via: CDex 1.50Beta7
#
DISCID=1c033503
DTITLE=ROUAGE - 瞳をあけてみるゆめ
DYEAR=2000
DGENRE=Rock
TTITLE0=瞳をあけてみるゆめ
TTITLE1=ブレストファイア
TTITLE2=望遠鏡 remix version
EXTD=YEAR: 2000
EXTT0=
EXTT1=
EXTT2=
PLAYORDER=
